<?xml version="1.0" encoding="utf-8"?>
<!-- Generator: Adobe Illustrator 26.4.1, SVG Export Plug-In . SVG Version: 6.00 Build 0)  -->
<svg version="1.1" xmlns="http://www.w3.org/2000/svg" xmlns:xlink="http://www.w3.org/1999/xlink" x="0px" y="0px"
	 viewBox="0 0 1080 1080" style="enable-background:new 0 0 1080 1080;" xml:space="preserve">
<g id="LOGO">
	<path d="M769.33,290.55c-26.69-11.28-56.35-6.03-77.58,13.78l-70.26,65.57c-21.36,19.93-7.25,55.72,21.96,55.72h0
		c8.15,0,16-3.09,21.96-8.66l70.26-65.58c3.19-2.98,6.49-2.45,8.7-1.5c4,1.74,4.84,4.97,4.84,7.38v265.45
		c0,4.36-2.63,6.42-4.84,7.38c-4,1.74-6.94,0.14-8.7-1.5L443.44,355.85l-20.56-19.19c-16.61-15.51-43.63-9.38-51.93,11.78l0,0
		c-4.82,12.29-1.65,26.27,8,35.28l312.8,291.95c21.23,19.81,50.88,25.06,77.56,13.79c27.02-11.42,44.28-38.26,44.28-67.6V358.14
		C813.59,328.82,796.34,301.97,769.33,290.55z"/>
	<path d="M436.54,554.38c-8.15,0-16,3.09-21.96,8.66l-70.26,65.58c-3.19,2.98-6.49,2.45-8.7,1.5c-4-1.74-4.84-4.97-4.84-7.38V409.53
		c0-17.78-14.41-32.19-32.19-32.19h0c-17.78,0-32.19,14.41-32.19,32.19v213.19c0,29.29,16.69,54.74,43.56,66.42
		c9.52,4.14,19.43,6.16,29.2,6.16c17.84,0,35.25-6.72,49.08-19.63l70.26-65.57C479.86,590.16,465.75,554.38,436.54,554.38
		L436.54,554.38z"/>
	<circle cx="322.47" cy="321.13" r="32.19"/>
</g>
<g id="NAME">
	<g>
		<path d="M271.14,818.24h-4.73v-37.92h4.73V818.24z"/>
		<path d="M318.21,803.24v15.01h-4.73v-37.92h14.22c3.66,0,6.59,1.03,8.79,3.09c2.2,2.06,3.3,4.8,3.3,8.21
			c0,2.65-0.67,4.93-2.02,6.86c-1.35,1.93-3.22,3.27-5.6,4.02l8.78,15.74h-5.55l-8.12-15.01H318.21z M318.21,784.52v14.53h9.07
			c2.44,0,4.31-0.63,5.64-1.89c1.32-1.26,1.98-3.06,1.98-5.39c0-2.28-0.69-4.06-2.08-5.33c-1.38-1.28-3.3-1.92-5.76-1.92H318.21z"/>
		<path d="M405.36,818.24l-3.81-10.85h-15.09l-3.81,10.85h-4.97l13.98-37.92h4.68l13.98,37.92H405.36z M393.93,786.07l-6.07,17.29
			h12.3l-6.07-17.29H393.93z"/>
		<path d="M454.33,818.24h-4.68v-37.92h4.6l20.76,29.78h0.24v-29.78h4.68v37.92h-4.6l-20.76-29.67h-0.24V818.24z"/>
		<path d="M537.91,818.24h-4.68l-13.98-37.92h4.97l11.27,32.17h0.16l11.27-32.17h4.97L537.91,818.24z"/>
		<path d="M614.71,813.99v4.26h-23.5v-37.92h23.5v4.26h-18.76v12.17h17.79v4.2h-17.79v13.04H614.71z"/>
		<path d="M660.65,803.24v15.01h-4.73v-37.92h14.22c3.66,0,6.59,1.03,8.79,3.09c2.2,2.06,3.3,4.8,3.3,8.21
			c0,2.65-0.67,4.93-2.02,6.86c-1.35,1.93-3.22,3.27-5.6,4.02l8.78,15.74h-5.54l-8.12-15.01H660.65z M660.65,784.52v14.53h9.07
			c2.44,0,4.31-0.63,5.64-1.89c1.32-1.26,1.98-3.06,1.98-5.39c0-2.28-0.69-4.06-2.08-5.33s-3.3-1.92-5.76-1.92H660.65z"/>
		<path d="M721.34,807.81h4.76c0.23,2.05,1.23,3.7,3.01,4.94c1.78,1.24,4.03,1.87,6.74,1.87c2.56,0,4.67-0.61,6.35-1.83
			c1.67-1.22,2.51-2.75,2.51-4.61c0-1.59-0.58-2.91-1.75-3.94c-1.17-1.03-3.03-1.88-5.58-2.55l-4.86-1.26
			c-3.5-0.89-6.06-2.14-7.67-3.74c-1.61-1.6-2.42-3.69-2.42-6.27c0-3.15,1.25-5.73,3.75-7.73c2.5-2,5.72-3,9.66-3
			c3.77,0,6.89,1.01,9.36,3.04c2.47,2.02,3.76,4.62,3.86,7.79h-4.73c-0.21-2.03-1.09-3.64-2.63-4.81c-1.54-1.17-3.55-1.76-6.02-1.76
			c-2.45,0-4.45,0.58-6,1.73c-1.55,1.16-2.33,2.66-2.33,4.52c0,1.44,0.57,2.61,1.7,3.54c1.13,0.92,2.98,1.71,5.56,2.38l3.97,1.05
			c3.92,0.98,6.75,2.29,8.46,3.92c1.72,1.63,2.57,3.8,2.57,6.52c0,3.47-1.27,6.22-3.82,8.24c-2.55,2.02-6.01,3.04-10.37,3.04
			c-4.03,0-7.32-1.01-9.88-3.02C722.96,813.84,721.57,811.16,721.34,807.81z"/>
		<path d="M813.59,813.99v4.26h-23.5v-37.92h23.5v4.26h-18.76v12.17h17.79v4.2h-17.79v13.04H813.59z"/>
	</g>
</g>
</svg>
